<?xml version="1.0" encoding="UTF-8"?><svg id="Layer_1" xmlns="http://www.w3.org/2000/svg" viewBox="0 0 6899.81 750.67"><defs><style>.cls-1{fill:#252f3f;}.cls-1,.cls-2{stroke-width:0px;}.cls-2{fill:#71c2f2;}</style></defs><polygon class="cls-1" points="363.07 174.52 363.07 738.31 181.54 738.31 181.54 174.52 0 174.52 0 12.54 544.61 12.54 544.61 174.52 363.07 174.52"/><path class="cls-1" d="M1027.13,738.31l-130.75-261.97h-61.54v261.97h-181.35V12.54h292.58c163.96,0,252.1,116.36,252.1,237.99,0,100.42-61.83,162.43-120.24,192.64l160.08,295.13h-210.9ZM938.33,175.21h-103.48v149.66h103.48c49.41,0,78.1-36.21,78.1-74.34s-28.69-75.32-78.1-75.32"/><path class="cls-1" d="M1755,726.37l-26.51-84.98c-2-7.21-8.68-13.51-16.53-13.51h-201.85c-7.66,0-14.51,6.16-16.6,13.13l-28.64,85.93c-2.21,7.3-8.68,11.37-16.6,11.37h-176.9L1539.9,12.54h139.69l269.44,725.77h-177.64c-7.73,0-14.48-4.52-16.39-11.94M1614.81,279.5l-66.8,197.95h128.72l-61.92-197.95Z"/><path class="cls-1" d="M2255.01,750.67c-87,0-151.77-28.45-205.36-82.31-78.17-78.01-75.05-181.8-75.05-293.28s-3.12-214.75,75.05-292.8c53.58-53.93,118.35-82.29,205.36-82.29,139.54,0,253.33,76.67,280.09,240.73h-171.93c-7.88,0-14.1-4.52-16.53-11.88-13.18-37.75-37.2-66.37-91.14-66.37-33.42,0-57.52,12.73-71.08,30.26-16.7,22.44-28.24,47.99-28.24,182.35s11.54,160.2,28.24,182.8c13.56,17.6,37.66,30.3,71.08,30.3,53.93,0,77.96-28.88,91.14-66.66,2.23-6.95,8.66-11.56,16.53-11.56h171.93c-26.76,164-140.55,240.7-280.09,240.7"/><path class="cls-1" d="M3040.17,738.31l-170.78-290.8-61.47,72.63v218.17h-179.75V12.54h179.75v211.23c0,17.34,20.32,24.93,30.6,12.94l182.6-224.17h221.98l-252,298.82,260.53,426.95h-211.45Z"/><path class="cls-2" d="M5416.63,738.31l-170.52-290.8-61.45,72.63v218.17h-179.54V12.54h179.54v211.23c0,17.34,20.82,24.93,30.79,12.94l182.94-224.17h222.38l-253.12,298.82,261.61,426.95h-212.63Z"/><polygon class="cls-2" points="3336.69 738.31 3336.69 12.54 3517.85 12.54 3517.85 576.09 3828.22 576.09 3828.22 738.31 3336.69 738.31"/><rect class="cls-2" x="3940.87" y="12.54" width="182.25" height="725.91"/><polygon class="cls-2" points="4708.01 738.31 4470.85 378.73 4470.85 738.31 4289.98 738.31 4289.98 12.54 4450.01 12.54 4686.03 384.06 4686.03 12.54 4868.37 12.54 4868.37 738.31 4708.01 738.31"/><path class="cls-1" d="M6899.81,738.31l-260.07-426.95,241.27-286.46c3.38-4.16.62-12.37-5.99-12.37h-195.03l-253.12,298.82,261.07,426.95h211.87Z"/><path class="cls-1" d="M6475.71,738.31l-259.54-426.95,240.37-286.46c3.73-4.16,1.52-12.37-5.28-12.37h-194.79l-252.91,298.82,259.36,426.95h212.8Z"/><path class="cls-1" d="M6051.71,738.31l-260.67-426.95,241.83-286.46c3.78-4.16.74-12.37-5.83-12.37h-195.57l-252.69,298.82,260.35,426.95h212.58Z"/></svg>